Patient4_TMGait_0pt4_02_left_40_EMG.mot
version=1
nRows=27
nColumns=33
inDegrees=no
endheader
time	1LAddLong	2LGlutMax	3LGlutMed	4LIliopsoas	5LSemiMemb	6LBicFemLong	7LRecFem	8LVastMed	9LVastLat	10LGasMed	11LTibAnt	12lTibPost	13LPeroneusLong	14LSol	15LExtDigLong	16LFlexDigLong	17RAddLong	18RGlutMax	19RGlutMed	20RIliopsoas	21RSemiMemb	22RBicFemLong	23RRecFem	24RVastMed	25RVastLat	26RGasMed	27RTibAnt	28RTibPost	29RPeroneusLong	30RSol	31RExtDigLong	32RFlexDigLong
54.72	0.025482	0.21271	-0.003815	0.011597	0.031281	0.005798	0.00946	0.011749	0.1445	-0.031128	0.37903	0.009613	0.030975	-0.13626	0.85724	-0.002899	-0.002289	0.12878	0.1741	0.037689	-0.041809	0.1358	0.16693	-0.03479	-0.13382	0.005341	0.19165	-0.003204	0.20874	0.041046	-0.002136	-0.006866
54.721	0.01709	0.21683	-0.007324	0.018921	0.023499	0.007629	-0.009308	0.010529	0.14481	-0.033417	0.0737	-0.005646	0.019531	-0.099792	-0.68909	0.004272	-0.019836	0.041504	0.75577	0.1178	0.034637	0.11826	0.22201	-0.098877	-0.16907	0.000305	0.17029	-0.002441	0.83344	0.031891	-0.001373	-0.009766
54.722	0.008698	0.20004	-0.015564	0.00824	0.007935	0.010834	-0.011292	0.007629	0.14282	-0.072327	-0.32196	0.000153	0.031433	-0.045776	-0.27527	0.011292	-0.02243	0.014648	-0.090027	0.10605	0.094299	0.088501	0.2002	-0.16739	-0.16647	-0.047607	0.11841	-0.007324	-0.037231	-0.066376	-0.003662	-0.005798
54.723	0.016327	0.22827	-0.058289	0.002441	-0.001678	-0.001984	0.001526	0.014038	0.13641	-0.034943	-0.087433	-0.000763	0.020905	-0.026093	0.47623	0.003357	-0.019989	0.059357	-0.22324	0.063019	0.05661	0.024109	0.045013	-0.16235	-0.10117	0.011597	0.037537	-0.001678	-0.97748	-0.013123	-0.002441	-0.004425
54.724	0.019531	0.23544	-0.036621	0.014648	0.003662	-0.006409	-0.001373	0.00885	0.13962	-0.002899	0.00061	0.006561	-0.027161	0.011444	0.33615	-0.009308	-0.014954	0.050354	0.020142	0.10559	0.015717	0.023346	0.049744	-0.21271	-0.050964	0.027008	0.27756	-0.003052	-0.97961	0.13351	-0.002747	-0.009918
54.725	0.032349	0.23758	-0.037384	0.002441	-0.000305	-0.011292	0.002899	0.009155	0.12787	-0.026855	-0.077515	0.001831	0.012054	0	-0.55618	-0.008392	0.004272	0.11078	0.051575	0.11154	-0.02121	0.015564	0.16998	-0.26184	-0.20767	0.009918	0.24292	-0.008392	1.0796	0.15991	0.001068	-0.017853
54.726	0.024109	0.26032	-0.12665	-0.005798	0.006256	-0.009766	0.005035	0.015564	0.12466	-0.039215	-0.000458	-0.008087	0.084229	-0.01358	-0.46845	0.018463	0.019531	0.046082	-0.36118	0.1564	-0.018768	0.027313	0.21576	-0.29984	-0.42236	0.003967	0.058289	-0.000458	0.78766	-0.00946	-0.002441	-0.015411
54.727	0.019989	0.27405	-0.12512	-0.003357	0.016937	0.000305	-0.008087	0.007019	0.12466	-0.050507	0.053711	0	0.048065	-0.028381	-0.20172	0.007172	0.011749	0.090485	0.033569	0.19165	-0.007324	0.028229	0.18005	0.040436	-0.44769	0.014801	0.21744	0.002289	0.72784	-0.089569	-0.005341	-0.009003
54.728	0.024109	0.28122	-0.10895	-0.007477	0.031281	0.018311	0.000153	0.006104	0.11505	-0.037537	0.068665	-0.00061	-0.034637	-0.007629	-0.31509	0.005341	0.011749	0.14358	-0.23758	0.16953	-0.019226	0.018463	0.16754	-0.036316	-0.4007	0.030365	-0.82626	0.000153	0.28091	-0.35309	-0.003662	-0.00412
54.729	0.009003	0.25284	0.10284	-0.001678	0.010071	0.039368	0.016632	0.00885	0.11566	-0.010681	0.041046	-0.00061	-0.07309	-0.002441	-0.21805	0.005188	0.005798	0.089111	-0.73532	-0.056	-0.019073	0.023499	-0.13565	-0.21835	-0.29465	0.034332	-0.87784	0.002289	-1.9583	-0.34622	-0.002441	0.003967
54.73	0.006409	0.2417	0.11246	0.031433	-0.023499	0.004272	0.023499	0.011749	0.11536	-0.005341	-0.007324	-0.00412	-0.084991	-0.054016	0.79727	0.007935	-0.000916	0.15839	-0.42847	-0.27542	-0.014954	0.059967	-0.66299	-0.12985	-0.070953	0.002289	-0.49408	-0.003662	-0.69656	-0.13138	0.009308	-0.003204
54.731	-0.000305	0.22858	0.097351	0.012207	-0.027771	-0.021973	0.007477	0.002899	0.11047	-0.037079	-0.14786	0.000763	-0.012054	-0.023804	-0.4744	0.010376	-0.001526	0.14847	-0.001678	-0.33691	-0.00885	0.063324	-0.45059	0.20584	0.33783	-0.014496	-0.14725	-0.001526	-0.33615	-0.092468	-0.002136	-0.009766
54.732	0.006256	0.21988	0.09903	-0.01297	-0.015259	-0.050201	0.006866	0.017548	0.12604	-0.036926	-0.16388	0.001831	0.056458	-0.10574	-0.39887	-0.004272	-0.00946	0.16495	0.29129	-0.21591	0	0.065613	-0.096588	0.44861	0.52094	-0.020447	0.30563	-0.003204	-0.009918	-0.10681	-0.001984	-0.006104
54.733	0.01297	0.21545	0.068817	-0.003204	0.002594	-0.062866	0.004272	0.015564	0.11902	-0.010223	-0.15167	0.000763	0.069122	-0.21606	-0.20233	0.004883	0.014648	0.18646	0.74463	0.036163	-0.00351	0.048828	-0.024872	0.22919	0.36331	-0.027771	0.62057	-0.003052	0.59265	-0.092926	-0.005341	-0.010681
54.734	0.018616	0.19226	0.058136	-0.016632	-0.001373	-0.059357	0.011749	0.005646	0.10529	0.005035	-0.014496	-0.000916	0.018921	-0.088501	0.004272	-0.002594	0.015106	0.13443	0.18478	0.25986	-0.01236	0.05188	-0.037079	0.014954	0.29648	-0.005951	0.1889	-0.001373	1.057	-0.10605	-0.003662	0.000458
54.735	0.025177	0.1799	0.025482	0.001526	0.007477	-0.03067	0.007019	0.010986	0.096588	0.013428	0.15961	-0.001984	-0.000916	-0.04303	0.2684	0.001068	0.016174	0.121	-0.95352	0.17105	-0.023804	0.064697	0.062256	-0.048828	0.20081	0.02594	-0.59143	-0.000458	-0.27252	-0.33402	-0.005798	0.015106
54.736	0.019836	0.19211	0.00885	0.009003	0	0.014343	0.012512	0.00351	0.10956	-0.005188	0.2655	0.00473	-0.001984	0.002899	0.25177	-0.001068	0.016785	0.20721	-0.54779	0.18646	-0.000305	0.088959	-0.043945	0.031281	0.11475	0.024414	0.028687	0.007782	-2.7483	-0.33554	-0.000916	0.006866
54.737	0.02243	0.17975	0.005493	0.016174	-0.020752	0.040436	0.013733	0.00885	0.10407	-0.031891	0.06134	-0.004578	0.020447	-0.024261	0.25055	0.004883	0.000305	0.20004	0.71838	0.15167	0.01358	0.09903	-0.047302	0.052032	0.092621	0.005951	0.44922	-0.001068	-1.7314	-0.081024	-0.001526	0.000916
54.738	0.016022	0.16312	-0.016479	0.014038	-0.014343	0.029907	0.010071	0.008087	0.10162	-0.0354	-0.041809	0	0.039368	0.01297	0.14374	0.004578	-0.000916	0.14389	0.45898	0.067139	0.01358	0.10574	-0.007324	0.075836	0.079803	0.013275	0.18601	-0.005035	-0.63278	-0.31616	-0.00351	0.001373
54.739	0.011292	0.14099	-0.026855	0.001221	-0.007935	0.016632	0.025787	0.000916	0.098267	-0.017548	-0.043335	0.00061	0.028381	-0.036926	0.079956	0.001984	-0.004578	0.13031	-0.25635	-0.031586	0.013428	0.10178	0.030975	0.075836	0.092621	0.013123	-0.019531	-0.006714	1.0635	-0.18112	-0.001831	-0.001831
54.74	0.014038	0.12878	-0.018616	0.009918	-0.028229	0.028687	0.018005	-0.014801	0.095825	-0.013123	-0.090485	-0.002136	-0.024719	-0.076599	0.28305	-0.001068	0.001068	0.099945	-0.27756	-0.066833	0.020294	0.15533	0.065308	0.08728	0.093231	-0.010376	-0.12405	-0.007782	0.29709	-0.00061	-0.00351	-0.013885
54.741	0.005493	0.10651	-0.016327	-0.005341	-0.037689	0.041504	0.015717	0.019379	0.098572	-0.010376	-0.031586	-0.00061	-0.056152	-0.013733	0.21729	0.00412	-0.003662	0.086212	-0.33859	0.003815	0.00946	0.17624	0.15549	0.019379	0.070496	-0.010071	0.027771	-0.007172	-0.35523	0.086975	-0.010681	-0.009766
54.742	0.009308	0.10559	0.006714	-0.002747	-0.005646	0.052795	0.017548	0.019226	0.092163	-0.012512	-0.028687	0.003052	-0.015411	-0.062103	0.083618	-0.010223	-0.002594	0.12283	-0.035248	0.10651	-0.010223	0.20111	0.21393	-0.006866	0.039825	-0.007782	-0.000305	0.001678	0.97977	-0.000916	-0.003052	-0.011292
54.743	0.004425	0.10452	-0.00473	0.002899	0.042877	0.077667	0.031128	0.019989	0.1059	-0.02182	0.014801	-0.001678	0.0383	-0.075531	0.052032	-0.008698	-0.011749	0.14053	-0.32867	0.15198	-0.023041	0.20691	0.2211	-0.001526	0.028687	-0.005798	0.26459	-0.005341	1.0123	0.1738	0.009613	-0.010986
54.744	-0.005798	0.071106	-0.029907	0.005798	0.036774	0.094452	0.015717	0.020447	0.10239	-0.049133	0.022278	-0.002289	0.032349	-0.037231	0.05127	-0.024261	-0.010834	0.11643	-0.76385	0.12039	-0.001068	0.21423	0.06424	0.022278	0.002747	-0.017548	-0.1149	-0.002747	0.13901	0.45898	-0.00351	-0.012512
54.745	-0.00351	0.077209	-0.059814	0.011902	-0.023499	0.071716	0.010681	0.013733	0.11459	-0.040436	-0.009003	-0.002747	0.012817	-0.15564	0.13886	-0.006866	-0.011292	0.14893	-1.27	0.14481	0.005951	0.1712	-0.11704	-0.012207	-0.078583	-0.029297	-0.43961	-0.002747	0.17258	0.46997	-0.002441	-0.018005
54.746	0.005493	0.076294	-0.080872	0.002899	-0.052795	-0.014954	0.009308	0.00946	0.11993	-0.024872	-0.08255	0.00351	0.03006	-0.16541	0.097198	0.001984	-0.005493	0.17502	-1.2532	0.044556	-0.00412	0.15396	-0.006866	-0.041962	-0.082245	-0.011597	-0.12756	0	1.1115	0.14725	-0.003204	-0.006561
